<svg width="512" height="512" viewBox="0 0 512 512" fill="none" xmlns="http://www.w3.org/2000/svg">
<g clip-path="url(#clip0_221_267)">
<g clip-path="url(#clip1_221_267)">
<path d="M422 0H90C40.2944 0 0 40.2944 0 90V422C0 471.706 40.2944 512 90 512H422C471.706 512 512 471.706 512 422V90C512 40.2944 471.706 0 422 0Z" fill="#F5F5F0"/>
</g>
<path d="M92.167 262V260.2L95.947 258.76C99.787 257.2 101.707 254.14 101.707 249.58V155.62C101.707 150.82 99.787 147.76 95.947 146.44L92.167 145V143.2H139.687C152.407 143.2 163.327 145.6 172.447 150.4C181.687 155.08 188.767 161.86 193.687 170.74C198.727 179.5 201.247 190.06 201.247 202.42C201.247 215.02 198.547 225.76 193.147 234.64C187.747 243.52 180.187 250.3 170.467 254.98C160.867 259.66 149.527 262 136.447 262H92.167ZM128.707 258.4H136.447C145.087 258.4 152.047 256.72 157.327 253.36C162.607 249.88 166.447 244.12 168.847 236.08C171.367 227.92 172.627 216.76 172.627 202.6C172.627 188.44 171.367 177.34 168.847 169.3C166.447 161.14 162.667 155.38 157.507 152.02C152.347 148.54 145.567 146.8 137.167 146.8H128.707V258.4ZM273.258 265.24C261.018 265.24 250.218 262.72 240.858 257.68C231.618 252.52 224.358 245.26 219.078 235.9C213.918 226.42 211.338 215.26 211.338 202.42C211.338 189.94 213.918 179.02 219.078 169.66C224.238 160.3 231.678 153.04 241.398 147.88C251.238 142.6 263.118 139.96 277.038 139.96C283.398 139.96 289.278 140.68 294.678 142.12C300.198 143.56 305.418 145.66 310.338 148.42L311.058 173.62H309.258L299.178 154.9C297.618 151.9 296.178 149.74 294.858 148.42C293.538 147.1 291.858 146.08 289.818 145.36C287.898 144.76 286.098 144.34 284.418 144.1C282.858 143.74 280.758 143.56 278.118 143.56C270.678 143.56 264.078 145.54 258.318 149.5C252.678 153.46 248.298 159.76 245.178 168.4C242.058 177.04 240.498 188.38 240.498 202.42C240.498 216.34 241.938 227.68 244.818 236.44C247.818 245.2 252.018 251.62 257.418 255.7C262.818 259.66 269.058 261.64 276.138 261.64C277.218 261.64 278.238 261.58 279.198 261.46C280.278 261.22 281.298 260.98 282.258 260.74C284.538 260.38 286.038 259.42 286.758 257.86C287.478 256.3 287.838 254.44 287.838 252.28V216.64C287.838 211.96 285.438 209.08 280.638 208L272.358 205.84V204.04H323.118V205.84L320.598 206.56C316.038 208 313.758 211 313.758 215.56V254.62C307.518 258.1 301.158 260.74 294.678 262.54C288.318 264.34 281.178 265.24 273.258 265.24ZM349.021 262V260.2L356.401 258.4C361.321 257.32 363.781 254.32 363.781 249.4V146.8H348.481C344.041 146.8 340.861 148 338.941 150.4C337.021 152.68 334.981 155.86 332.821 159.94L326.341 172.54H324.541L325.441 143.2H429.301L430.021 172.54H428.221L421.741 159.94C419.701 155.86 417.721 152.68 415.801 150.4C413.881 148 410.701 146.8 406.261 146.8H390.961V249.4C390.961 254.32 393.421 257.32 398.341 258.4L405.721 260.2V262H349.021Z" fill="#C27659"/>
<path d="M137.552 360.33L118.082 313.58C117.055 311.087 115.295 309.437 112.802 308.63L111.262 308.19V307.09H139.752V308.19L137.772 308.63C134.912 309.363 134.032 311.27 135.132 314.35L146.682 345.04L157.462 314.57C158.049 313.103 158.195 311.893 157.902 310.94C157.609 309.987 156.729 309.29 155.262 308.85L152.512 308.19V307.09H168.462V308.19L165.272 308.96C163.879 309.327 162.779 309.877 161.972 310.61C161.239 311.343 160.615 312.443 160.102 313.91L143.932 360.33H137.552ZM196.172 361.65C190.598 361.65 185.758 360.513 181.652 358.24C177.545 355.893 174.355 352.593 172.082 348.34C169.882 344.087 168.782 339.1 168.782 333.38C168.782 327.66 169.955 322.71 172.302 318.53C174.722 314.35 177.985 311.123 182.092 308.85C186.272 306.577 190.965 305.44 196.172 305.44C201.378 305.44 206.035 306.577 210.142 308.85C214.248 311.05 217.475 314.24 219.822 318.42C222.242 322.6 223.452 327.587 223.452 333.38C223.452 339.173 222.315 344.197 220.042 348.45C217.842 352.63 214.688 355.893 210.582 358.24C206.548 360.513 201.745 361.65 196.172 361.65ZM196.172 359.45C198.738 359.45 200.792 358.717 202.332 357.25C203.872 355.783 204.972 353.18 205.632 349.44C206.365 345.7 206.732 340.42 206.732 333.6C206.732 326.707 206.365 321.39 205.632 317.65C204.972 313.91 203.872 311.307 202.332 309.84C200.792 308.373 198.738 307.64 196.172 307.64C193.605 307.64 191.515 308.373 189.902 309.84C188.362 311.307 187.225 313.91 186.492 317.65C185.832 321.39 185.502 326.707 185.502 333.6C185.502 340.42 185.832 345.7 186.492 349.44C187.225 353.18 188.362 355.783 189.902 357.25C191.515 358.717 193.605 359.45 196.172 359.45ZM256.208 361.65C251.221 361.65 246.674 360.587 242.568 358.46C238.534 356.26 235.308 353.107 232.888 349C230.541 344.82 229.368 339.723 229.368 333.71C229.368 327.77 230.651 322.71 233.218 318.53C235.858 314.277 239.341 311.05 243.668 308.85C248.068 306.577 252.871 305.44 258.078 305.44C262.331 305.44 265.924 306.137 268.858 307.53C271.791 308.923 274.028 310.757 275.568 313.03C277.108 315.23 277.878 317.54 277.878 319.96C277.878 322.013 277.254 323.627 276.008 324.8C274.761 325.9 273.148 326.45 271.168 326.45C269.041 326.45 267.318 325.68 265.998 324.14C264.678 322.6 263.908 320.583 263.688 318.09C263.614 316.477 263.651 315.12 263.798 314.02C263.944 312.847 263.944 311.673 263.798 310.5C263.504 309.253 263.028 308.447 262.368 308.08C261.781 307.64 260.938 307.42 259.838 307.42C255.364 307.42 251.881 309.363 249.388 313.25C246.968 317.137 245.758 323.333 245.758 331.84C245.758 339.247 247.114 344.93 249.828 348.89C252.614 352.777 256.868 354.72 262.588 354.72C266.034 354.72 268.821 354.097 270.948 352.85C273.074 351.603 275.128 349.733 277.108 347.24L278.208 348.12C276.374 352.447 273.551 355.783 269.738 358.13C265.924 360.477 261.414 361.65 256.208 361.65ZM298.698 361.65C294.445 361.65 290.852 360.44 287.918 358.02C285.058 355.6 283.628 352.117 283.628 347.57C283.628 344.123 285.388 340.97 288.908 338.11C292.428 335.177 297.965 332.977 305.518 331.51C306.692 331.29 308.012 331.07 309.478 330.85C310.945 330.557 312.485 330.263 314.098 329.97V321.28C314.098 316.293 313.475 312.81 312.228 310.83C311.055 308.777 309.185 307.75 306.618 307.75C304.858 307.75 303.465 308.337 302.438 309.51C301.412 310.61 300.752 312.553 300.458 315.34L300.238 316.55C300.092 319.703 299.322 322.013 297.928 323.48C296.535 324.947 294.812 325.68 292.758 325.68C290.852 325.68 289.275 325.093 288.028 323.92C286.782 322.747 286.158 321.17 286.158 319.19C286.158 316.183 287.185 313.653 289.238 311.6C291.365 309.547 294.152 308.007 297.598 306.98C301.045 305.953 304.785 305.44 308.818 305.44C315.345 305.44 320.368 307.053 323.888 310.28C327.482 313.433 329.278 318.603 329.278 325.79V350.1C329.278 353.4 330.818 355.05 333.898 355.05H336.318L337.308 355.93C335.915 357.69 334.375 359.047 332.688 360C331.075 360.953 328.765 361.43 325.758 361.43C322.532 361.43 319.965 360.697 318.058 359.23C316.225 357.69 315.015 355.673 314.428 353.18C312.228 355.527 309.955 357.543 307.608 359.23C305.335 360.843 302.365 361.65 298.698 361.65ZM305.408 354.94C306.875 354.94 308.232 354.61 309.478 353.95C310.798 353.217 312.338 352.117 314.098 350.65V332.17C313.365 332.317 312.632 332.463 311.898 332.61C311.165 332.757 310.322 332.903 309.368 333.05C305.995 333.93 303.282 335.433 301.228 337.56C299.248 339.613 298.258 342.4 298.258 345.92C298.258 348.927 298.955 351.2 300.348 352.74C301.742 354.207 303.428 354.94 305.408 354.94ZM358.382 361.43L339.792 360V358.9L340.892 358.68C343.752 358.02 345.182 356.187 345.182 353.18V294.33C345.182 292.79 344.925 291.617 344.412 290.81C343.972 290.003 343.019 289.453 341.552 289.16L340.012 288.72V287.62L359.592 282.89L360.912 283.88L360.472 299.39V310.5C362.892 308.813 365.532 307.567 368.392 306.76C371.252 305.88 374.149 305.44 377.082 305.44C381.262 305.44 384.965 306.43 388.192 308.41C391.419 310.317 393.949 313.323 395.782 317.43C397.689 321.463 398.642 326.67 398.642 333.05C398.642 339.43 397.579 344.747 395.452 349C393.399 353.18 390.612 356.333 387.092 358.46C383.645 360.587 379.832 361.65 375.652 361.65C372.939 361.65 370.189 361.283 367.402 360.55C364.689 359.817 362.269 358.79 360.142 357.47L358.382 361.43ZM370.152 357.91C372.499 357.91 374.552 357.177 376.312 355.71C378.072 354.243 379.465 351.75 380.492 348.23C381.519 344.637 382.032 339.723 382.032 333.49C382.032 327.257 381.555 322.453 380.602 319.08C379.649 315.707 378.292 313.36 376.532 312.04C374.845 310.72 372.792 310.06 370.372 310.06C366.925 310.06 363.735 311.013 360.802 312.92V355.16C362.195 356.04 363.625 356.737 365.092 357.25C366.559 357.69 368.245 357.91 370.152 357.91Z" fill="#CAB496"/>
</g>
<defs>
<clipPath id="clip0_221_267">
<rect width="512" height="512" fill="white"/>
</clipPath>
<clipPath id="clip1_221_267">
<rect width="512" height="512" fill="white"/>
</clipPath>
</defs>
</svg>
